<svg width="43" height="43" viewBox="0 0 43 43" fill="none" xmlns="http://www.w3.org/2000/svg">
  <rect width="43" height="43"  fill="#F6EEDF"/>
  <path d="M7.5 14.9a9.3 9.3 0 00-.3 9.7A20.4 20.4 0 0123.5 41h2.3A53 53 0 0021 26.3h3.7c2 0 4.5 1.7 4.4 2.2 0 .3-2 1.4-3 2v2.2c2.4-.3 6.2-3.6 6.5-4.2.3-.7-1.1-1.9-2.5-3a33.7 33.7 0 00-5.3-3.7c.5-1.4 1-3.3 1-5.8 0-2.6 1-4.7 1.2-4.5-.4 1.7.9 2.8 1.8 4l1.3 2c1.3 1.2 2.4-1 2.5-2 .3-4.3 0-9.8 0-10.2 0-.4.7-.9 1.3-1.4.5-.5-.9-.6-1.3-.6S31.6 3 30 3c-4.5 0-8.3 1.4-10.6 5.5-4.6 8-9.6 6.4-12 6.4z" fill="#D7385E"/>
</svg>
